<?xml version="1.0" encoding="UTF-8" standalone="no"?>
<!-- Created with Inkscape (http://www.inkscape.org/) -->

<svg
   width="210mm"
   height="297mm"
   viewBox="0 0 210 297"
   version="1.1"
   id="svg5"
   inkscape:version="1.1.2 (0a00cf5339, 2022-02-04, custom)"
   sodipodi:docname="svg_source.svg"
   xmlns:inkscape="http://www.inkscape.org/namespaces/inkscape"
   xmlns:sodipodi="http://sodipodi.sourceforge.net/DTD/sodipodi-0.dtd"
   xmlns="http://www.w3.org/2000/svg"
   xmlns:svg="http://www.w3.org/2000/svg">
  <sodipodi:namedview
     id="namedview7"
     pagecolor="#ffffff"
     bordercolor="#666666"
     borderopacity="1.0"
     inkscape:pageshadow="2"
     inkscape:pageopacity="0.0"
     inkscape:pagecheckerboard="0"
     inkscape:document-units="mm"
     showgrid="false"
     inkscape:zoom="0.77771465"
     inkscape:cx="397.31796"
     inkscape:cy="252.66337"
     inkscape:window-width="1682"
     inkscape:window-height="1111"
     inkscape:window-x="220"
     inkscape:window-y="471"
     inkscape:window-maximized="0"
     inkscape:current-layer="text2102" />
  <defs
     id="defs2" />
  <g
     inkscape:label="Layer 1"
     inkscape:groupmode="layer"
     id="layer1">
    <g
       aria-label="bcactf{SHaPE_f1lEd_
b54a11ac9c87c8}"
       id="text2102"
       style="font-size:17.6924px;line-height:1.25;stroke-width:0.442311">
      <path
         d="m 19.178545,105.57934 c 0,0.53077 0.460002,0.53077 0.707696,0.53077 h 0.796158 v 9.00543 c 0,0.35385 0,0.72539 0.619234,0.72539 0.601542,0 0.601542,-0.35385 0.601542,-0.79616 0.725388,0.74308 1.486161,0.90231 2.052318,0.90231 1.928472,0 3.644634,-1.68078 3.644634,-3.92771 0,-2.17617 -1.574623,-3.91002 -3.450018,-3.91002 -0.849235,0 -1.645393,0.31846 -2.246934,0.86693 v -3.22002 c 0,-0.54847 -0.106155,-0.72539 -0.707696,-0.72539 h -1.291546 c -0.283078,0 -0.725388,0 -0.725388,0.54847 z m 2.72463,6.88234 v -1.29155 c 0,-1.04385 1.026159,-1.98155 2.14078,-1.98155 1.309238,0 2.335397,1.29155 2.335397,2.83079 0,1.69847 -1.238468,2.84848 -2.476936,2.84848 -1.380007,0 -1.999241,-1.55694 -1.999241,-2.40617 z"
         style="font-family:'CMU Typewriter Text';-inkscape-font-specification:'CMU Typewriter Text'"
         id="path14632" />
      <path
         d="m 29.546285,112.01937 c 0,2.12309 1.663086,3.92771 3.892328,3.92771 2.459244,0 3.060785,-1.73385 3.060785,-2.03462 0,-0.49539 -0.513079,-0.49539 -0.619234,-0.49539 -0.283078,0 -0.460002,0.0354 -0.583849,0.38923 -0.106154,0.23 -0.44231,1.06155 -1.751548,1.06155 -1.503854,0 -2.777706,-1.23847 -2.777706,-2.84848 0,-0.84924 0.495387,-2.88386 2.883861,-2.88386 0.37154,0 1.061544,0 1.061544,0.15923 0.01769,0.61923 0.353848,0.86693 0.778465,0.86693 0.424618,0 0.796158,-0.30077 0.796158,-0.81385 0,-1.29155 -1.840009,-1.29155 -2.636167,-1.29155 -3.043093,0 -4.104637,2.40617 -4.104637,3.9631 z"
         style="font-family:'CMU Typewriter Text';-inkscape-font-specification:'CMU Typewriter Text'"
         id="path14634" />
      <path
         d="m 38.516325,113.5763 c 0,1.22078 1.114622,2.37078 2.919246,2.37078 0.654619,0 1.751548,-0.12385 2.583091,-0.67231 0.389233,0.54846 1.238468,0.56616 1.910779,0.56616 0.495387,0 0.88462,0 0.88462,-0.54847 0,-0.53077 -0.44231,-0.53077 -0.707696,-0.53077 -0.743081,0 -0.920005,-0.0885 -1.061544,-0.14154 v -3.82156 c 0,-1.25616 -0.95539,-2.74232 -3.503095,-2.74232 -0.760773,0 -2.565398,0 -2.565398,1.29155 0,0.53077 0.37154,0.81385 0.796158,0.81385 0.265386,0 0.760773,-0.15923 0.778465,-0.81385 0,-0.14154 0.01769,-0.15924 0.371541,-0.19462 0.247693,-0.0177 0.477695,-0.0177 0.636926,-0.0177 1.344623,0 2.264627,0.54846 2.264627,1.80462 -3.131554,0.0531 -5.30772,0.9377 -5.30772,2.63617 z m 1.220776,0 c 0,-0.86693 1.521546,-1.52155 4.086944,-1.59232 v 1.48617 c 0,0.40692 0,0.77846 -0.690003,1.09692 -0.636927,0.30078 -1.433085,0.30078 -1.574624,0.30078 -1.096929,0 -1.822317,-0.60155 -1.822317,-1.29155 z"
         style="font-family:'CMU Typewriter Text';-inkscape-font-specification:'CMU Typewriter Text'"
         id="path14636" />
      <path
         d="m 48.123292,112.01937 c 0,2.12309 1.663086,3.92771 3.892328,3.92771 2.459244,0 3.060785,-1.73385 3.060785,-2.03462 0,-0.49539 -0.513079,-0.49539 -0.619234,-0.49539 -0.283078,0 -0.460002,0.0354 -0.583849,0.38923 -0.106154,0.23 -0.44231,1.06155 -1.751547,1.06155 -1.503854,0 -2.777707,-1.23847 -2.777707,-2.84848 0,-0.84924 0.495387,-2.88386 2.883861,-2.88386 0.37154,0 1.061544,0 1.061544,0.15923 0.01769,0.61923 0.353848,0.86693 0.778466,0.86693 0.424617,0 0.796158,-0.30077 0.796158,-0.81385 0,-1.29155 -1.84001,-1.29155 -2.636168,-1.29155 -3.043093,0 -4.104637,2.40617 -4.104637,3.9631 z"
         style="font-family:'CMU Typewriter Text';-inkscape-font-specification:'CMU Typewriter Text'"
         id="path14638" />
      <path
         d="m 56.562561,108.76397 c 0,0.53077 0.44231,0.53077 0.707696,0.53077 h 1.556931 v 4.31694 c 0,1.69848 1.203083,2.3354 2.494628,2.3354 1.309238,0 2.742322,-0.76077 2.742322,-2.3354 0,-0.31846 0,-0.69 -0.619234,-0.69 -0.583849,0 -0.601541,0.37154 -0.601541,0.67231 -0.01769,1.09693 -1.02616,1.27386 -1.433085,1.27386 -1.362315,0 -1.362315,-0.92001 -1.362315,-1.36232 v -4.21079 h 2.901554 c 0.265386,0 0.707696,0 0.707696,-0.53077 0,-0.54847 -0.424618,-0.54847 -0.707696,-0.54847 h -2.901554 v -1.45077 c 0,-0.33616 0,-0.72539 -0.601541,-0.72539 -0.619234,0 -0.619234,0.37154 -0.619234,0.72539 v 1.45077 h -1.539239 c -0.283078,0 -0.725388,0 -0.725388,0.54847 z"
         style="font-family:'CMU Typewriter Text';-inkscape-font-specification:'CMU Typewriter Text'"
         id="path14640" />
      <path
         d="m 66.151837,115.29246 c 0,0.54847 0.460002,0.54847 0.725388,0.54847 h 4.794641 c 0.265386,0 0.725388,0 0.725388,-0.53077 0,-0.54847 -0.460002,-0.54847 -0.725388,-0.54847 h -1.786933 v -5.46695 h 2.158473 c 0.265386,0 0.707696,0 0.707696,-0.53077 0,-0.54847 -0.424617,-0.54847 -0.707696,-0.54847 h -2.158473 v -0.83154 c 0,-1.38001 1.185391,-1.38001 1.716163,-1.38001 0,0.0708 0.159232,0.76078 0.778466,0.76078 0.353848,0 0.760773,-0.28308 0.760773,-0.77847 0,-1.06154 -1.415392,-1.06154 -1.69847,-1.06154 -1.415392,0 -2.777707,0.81385 -2.777707,2.35309 v 0.93769 h -1.76924 c -0.283079,0 -0.725389,0 -0.725389,0.54847 0,0.53077 0.44231,0.53077 0.707696,0.53077 h 1.786933 v 5.46695 h -1.786933 c -0.265386,0 -0.725388,0 -0.725388,0.53077 z"
         style="font-family:'CMU Typewriter Text';-inkscape-font-specification:'CMU Typewriter Text'"
         id="path14642" />
      <path
         d="m 75.688032,110.44475 c 0,0.74308 0.831543,0.44231 1.857702,0.67231 1.203084,0.26538 1.167699,0.76077 1.167699,1.15 v 2.83079 c 0,1.32693 0.866927,2.17616 3.46771,2.21155 h 0.194617 c 0.477694,0 0.583849,-0.31847 0.583849,-0.54847 0,-0.72539 -0.813851,-0.47769 -1.733855,-0.61923 -1.273853,-0.21231 -1.273853,-0.7077 -1.273853,-1.09693 v -2.77771 c 0,-0.44231 0.01769,-1.25616 -1.026159,-1.82231 v -0.0177 c 1.008466,-0.54846 1.026159,-1.29154 1.026159,-1.82231 v -2.76002 c 0,-0.14154 -0.01769,-0.28308 0.03538,-0.40692 0.230001,-0.69001 1.6277,-0.77847 2.335396,-0.77847 0.106155,-0.0177 0.636927,0.0177 0.636927,-0.54846 0,-0.28308 -0.141539,-0.54847 -0.619234,-0.54847 h -0.01769 c -2.689244,0 -3.609249,0.88462 -3.609249,2.22924 v 2.8131 c 0,0.12384 0,0.24769 -0.01769,0.35384 -0.212308,1.00847 -2.423858,0.90232 -2.600782,0.95539 -0.176924,0.0354 -0.406926,0.21231 -0.406926,0.53078 z"
         style="font-family:'CMU Typewriter Text';-inkscape-font-specification:'CMU Typewriter Text'"
         id="path14644" />
      <path
         d="m 84.905765,115.31016 c 0,0.28307 0,0.72538 0.530772,0.72538 0.389232,0 0.495387,-0.24769 0.654618,-0.81385 0.707696,0.53078 1.786933,0.81385 2.919246,0.81385 2.052319,0 3.326172,-1.55693 3.326172,-3.13155 0,-1.13231 -0.636927,-1.8754 -0.849236,-2.1054 -0.725388,-0.70769 -1.203083,-0.83154 -2.58309,-1.15 l -1.433084,-0.31847 c -0.743081,-0.2123 -1.415392,-0.83154 -1.415392,-1.66308 0,-0.90231 0.866927,-1.75155 2.123088,-1.75155 2.087703,0 2.353089,1.66309 2.459243,2.21155 0.05308,0.38923 0.247694,0.49539 0.601542,0.49539 0.619234,0 0.619234,-0.37154 0.619234,-0.72539 v -2.3354 c 0,-0.28308 0,-0.72539 -0.530772,-0.72539 -0.424618,0 -0.51308,0.30078 -0.654619,0.83155 -0.725388,-0.61924 -1.680778,-0.83155 -2.476936,-0.83155 -1.963856,0 -3.290786,1.3977 -3.290786,2.90156 0,1.18539 0.81385,2.35309 2.282319,2.7777 0.07077,0.0177 1.786933,0.42462 2.034626,0.4777 0.495387,0.10615 1.963857,0.46 1.963857,1.99924 0,0.92001 -0.760774,1.96386 -2.158473,1.96386 -0.495387,0 -1.362315,-0.0708 -2.070011,-0.54847 -0.743081,-0.47769 -0.81385,-1.22077 -0.831543,-1.53924 -0.01769,-0.30077 -0.03539,-0.61923 -0.601541,-0.61923 -0.619234,0 -0.619234,0.37154 -0.619234,0.72539 z"
         style="font-family:'CMU Typewriter Text';-inkscape-font-specification:'CMU Typewriter Text'"
         id="path14646" />
      <path
         d="m 93.663498,115.31016 c 0,0.53077 0.44231,0.53077 0.707696,0.53077 h 2.105396 c 0.265386,0 0.707696,0 0.707696,-0.53077 0,-0.54847 -0.424618,-0.54847 -0.707696,-0.54847 h -0.44231 v -3.99848 h 3.750788 v 3.99848 h -0.44231 c -0.265386,0 -0.707696,0 -0.707696,0.53077 0,0.54847 0.424618,0.54847 0.707696,0.54847 h 2.105392 c 0.26539,0 0.7077,0 0.7077,-0.53077 0,-0.54847 -0.42462,-0.54847 -0.7077,-0.54847 h -0.44231 v -8.65158 h 0.44231 c 0.26539,0 0.7077,0 0.7077,-0.53077 0,-0.54847 -0.42462,-0.54847 -0.7077,-0.54847 h -2.105392 c -0.265386,0 -0.707696,0 -0.707696,0.53077 0,0.54847 0.424618,0.54847 0.707696,0.54847 h 0.44231 v 3.57386 H 96.03428 v -3.57386 h 0.44231 c 0.265386,0 0.707696,0 0.707696,-0.53077 0,-0.54847 -0.424618,-0.54847 -0.707696,-0.54847 h -2.105396 c -0.283078,0 -0.707696,0 -0.707696,0.54847 0,0.53077 0.44231,0.53077 0.707696,0.53077 h 0.44231 v 8.65158 h -0.44231 c -0.283078,0 -0.707696,0 -0.707696,0.54847 z"
         style="font-family:'CMU Typewriter Text';-inkscape-font-specification:'CMU Typewriter Text'"
         id="path14648" />
      <path
         d="m 103.53585,113.5763 c 0,1.22078 1.11462,2.37078 2.91925,2.37078 0.65462,0 1.75155,-0.12385 2.58309,-0.67231 0.38923,0.54846 1.23847,0.56616 1.91078,0.56616 0.49539,0 0.88462,0 0.88462,-0.54847 0,-0.53077 -0.44231,-0.53077 -0.7077,-0.53077 -0.74308,0 -0.92,-0.0885 -1.06154,-0.14154 v -3.82156 c 0,-1.25616 -0.95539,-2.74232 -3.5031,-2.74232 -0.76077,0 -2.56539,0 -2.56539,1.29155 0,0.53077 0.37154,0.81385 0.79615,0.81385 0.26539,0 0.76078,-0.15923 0.77847,-0.81385 0,-0.14154 0.0177,-0.15924 0.37154,-0.19462 0.24769,-0.0177 0.47769,-0.0177 0.63693,-0.0177 1.34462,0 2.26462,0.54846 2.26462,1.80462 -3.13155,0.0531 -5.30772,0.9377 -5.30772,2.63617 z m 1.22078,0 c 0,-0.86693 1.52154,-1.52155 4.08694,-1.59232 v 1.48617 c 0,0.40692 0,0.77846 -0.69,1.09692 -0.63693,0.30078 -1.43309,0.30078 -1.57462,0.30078 -1.09693,0 -1.82232,-0.60155 -1.82232,-1.29155 z"
         style="font-family:'CMU Typewriter Text';-inkscape-font-specification:'CMU Typewriter Text'"
         id="path14650" />
      <path
         d="m 112.31128,115.31016 c 0,0.53077 0.46,0.53077 0.72539,0.53077 h 2.28232 c 0.26538,0 0.72539,0 0.72539,-0.53077 0,-0.54847 -0.46001,-0.54847 -0.72539,-0.54847 h -0.53078 v -3.2554 h 2.21155 c 2.05232,0 3.34387,-1.59232 3.34387,-3.23771 0,-1.64539 -1.30924,-3.23771 -3.34387,-3.23771 h -3.96309 c -0.26539,0 -0.72539,0 -0.72539,0.53077 0,0.54847 0.46,0.54847 0.72539,0.54847 h 0.53077 v 8.65158 h -0.53077 c -0.28308,0 -0.72539,0 -0.72539,0.54847 z m 2.47693,-4.88311 v -4.31694 h 1.8754 c 1.69847,0 2.45924,1.22077 2.45924,2.15847 0,0.9377 -0.76077,2.15847 -2.45924,2.15847 z"
         style="font-family:'CMU Typewriter Text';-inkscape-font-specification:'CMU Typewriter Text'"
         id="path14652" />
      <path
         d="m 121.59978,115.31016 c 0,0.53077 0.46,0.53077 0.72539,0.53077 h 6.98849 c 0.58385,0 0.7077,-0.15923 0.7077,-0.72539 v -1.57462 c 0,-0.33616 0,-0.72539 -0.60154,-0.72539 -0.61924,0 -0.61924,0.37154 -0.61924,0.72539 v 1.22077 h -4.72387 v -3.98079 h 2.31771 c 0,0.72539 0,1.00847 0.61923,1.00847 0.60154,0 0.60154,-0.38924 0.60154,-0.72539 v -1.64539 c 0,-0.33616 0,-0.72539 -0.60154,-0.72539 -0.61923,0 -0.61923,0.28308 -0.61923,1.00846 h -2.31771 v -3.59155 h 4.33464 v 0.93769 c 0,0.33616 0,0.72539 0.60154,0.72539 0.61924,0 0.61924,-0.37154 0.61924,-0.72539 v -1.29154 c 0,-0.54847 -0.10616,-0.72539 -0.7077,-0.72539 h -6.59926 c -0.26539,0 -0.72539,0 -0.72539,0.53077 0,0.54847 0.46,0.54847 0.72539,0.54847 h 0.53077 v 8.65158 h -0.53077 c -0.28308,0 -0.72539,0 -0.72539,0.54847 z"
         style="font-family:'CMU Typewriter Text';-inkscape-font-specification:'CMU Typewriter Text'"
         id="path14654" />
      <path
         d="m 131.41905,116.90247 c 0,0.19462 0.0885,0.60154 0.72539,0.61924 h 5.80311 c 0.61923,0 0.74308,-0.35385 0.76077,-0.60155 0,-0.17692 -0.0885,-0.63692 -0.72539,-0.63692 h -5.82079 c -0.60155,0 -0.74309,0.38923 -0.74309,0.61923 z"
         style="font-family:'CMU Typewriter Text';-inkscape-font-specification:'CMU Typewriter Text'"
         id="path14656" />
      <path
         d="m 140.45987,115.29246 c 0,0.54847 0.46,0.54847 0.72538,0.54847 h 4.79465 c 0.26538,0 0.72538,0 0.72538,-0.53077 0,-0.54847 -0.46,-0.54847 -0.72538,-0.54847 h -1.78694 v -5.46695 h 2.15848 c 0.26538,0 0.70769,0 0.70769,-0.53077 0,-0.54847 -0.42462,-0.54847 -0.70769,-0.54847 h -2.15848 v -0.83154 c 0,-1.38001 1.18539,-1.38001 1.71617,-1.38001 0,0.0708 0.15923,0.76078 0.77846,0.76078 0.35385,0 0.76077,-0.28308 0.76077,-0.77847 0,-1.06154 -1.41539,-1.06154 -1.69847,-1.06154 -1.41539,0 -2.7777,0.81385 -2.7777,2.35309 v 0.93769 h -1.76924 c -0.28308,0 -0.72539,0 -0.72539,0.54847 0,0.53077 0.44231,0.53077 0.70769,0.53077 h 1.78694 v 5.46695 h -1.78694 c -0.26538,0 -0.72538,0 -0.72538,0.53077 z"
         style="font-family:'CMU Typewriter Text';-inkscape-font-specification:'CMU Typewriter Text'"
         id="path14658" />
      <path
         d="m 150.86299,107.54319 c 0,0.44231 0.31846,0.53077 0.58384,0.53077 0.33616,0 1.06155,-0.10615 1.84001,-0.77846 v 7.46619 h -1.61 c -0.28308,0 -0.7077,0 -0.7077,0.54847 0,0.53077 0.44231,0.53077 0.7077,0.53077 h 4.44079 c 0.26538,0 0.70769,0 0.70769,-0.53077 0,-0.54847 -0.42461,-0.54847 -0.70769,-0.54847 h -1.61001 v -9.20005 c 0,-0.28308 0,-0.72539 -0.53077,-0.72539 -0.33616,0 -0.44231,0.21231 -0.53077,0.42462 -0.67232,1.50386 -1.59232,1.69847 -1.92848,1.73386 -0.28307,0.0177 -0.65461,0.0531 -0.65461,0.54846 z"
         style="font-family:'CMU Typewriter Text';-inkscape-font-specification:'CMU Typewriter Text'"
         id="path14660" />
      <path
         d="m 159.31996,115.31016 c 0,0.53077 0.46,0.53077 0.70769,0.53077 h 5.8208 c 0.26539,0 0.7077,0 0.7077,-0.53077 0,-0.54847 -0.42462,-0.54847 -0.7077,-0.54847 h -2.30001 v -9.00543 c 0,-0.54847 -0.10616,-0.72539 -0.7077,-0.72539 h -2.7954 c -0.28307,0 -0.72538,0 -0.72538,0.54847 0,0.53077 0.46,0.53077 0.70769,0.53077 h 2.30001 v 8.65158 h -2.28232 c -0.28307,0 -0.72538,0 -0.72538,0.54847 z"
         style="font-family:'CMU Typewriter Text';-inkscape-font-specification:'CMU Typewriter Text'"
         id="path14662" />
      <path
         d="m 168.0423,115.31016 c 0,0.53077 0.46,0.53077 0.72539,0.53077 h 6.98849 c 0.58385,0 0.7077,-0.15923 0.7077,-0.72539 v -1.57462 c 0,-0.33616 0,-0.72539 -0.60154,-0.72539 -0.61924,0 -0.61924,0.37154 -0.61924,0.72539 v 1.22077 h -4.72387 v -3.98079 h 2.31771 c 0,0.72539 0,1.00847 0.61923,1.00847 0.60154,0 0.60154,-0.38924 0.60154,-0.72539 v -1.64539 c 0,-0.33616 0,-0.72539 -0.60154,-0.72539 -0.61923,0 -0.61923,0.28308 -0.61923,1.00846 h -2.31771 v -3.59155 h 4.33464 v 0.93769 c 0,0.33616 0,0.72539 0.60154,0.72539 0.61924,0 0.61924,-0.37154 0.61924,-0.72539 v -1.29154 c 0,-0.54847 -0.10616,-0.72539 -0.7077,-0.72539 h -6.59926 c -0.26539,0 -0.72539,0 -0.72539,0.53077 0,0.54847 0.46,0.54847 0.72539,0.54847 h 0.53077 v 8.65158 h -0.53077 c -0.28308,0 -0.72539,0 -0.72539,0.54847 z"
         style="font-family:'CMU Typewriter Text';-inkscape-font-specification:'CMU Typewriter Text'"
         id="path14664" />
      <path
         d="m 177.50772,112.03706 c 0,2.19386 1.59231,3.91002 3.46771,3.91002 0.99077,0 1.73385,-0.47769 2.22924,-0.99077 0,0.63692 0,0.88462 0.7077,0.88462 h 1.29154 c 0.28308,0 0.72539,0 0.72539,-0.54847 0,-0.53077 -0.46,-0.53077 -0.70769,-0.53077 h -0.79616 v -9.00543 c 0,-0.54847 -0.10616,-0.72539 -0.7077,-0.72539 h -1.29154 c -0.28308,0 -0.72539,0 -0.72539,0.54847 0,0.53077 0.46,0.53077 0.70769,0.53077 h 0.79616 v 2.7954 c -0.58385,-0.51308 -1.30924,-0.79616 -2.07001,-0.79616 -1.92847,0 -3.62694,1.68078 -3.62694,3.92771 z m 1.22077,0 c 0,-1.69847 1.23847,-2.84848 2.47694,-2.84848 1.13231,0 1.99924,0.99078 1.99924,1.96386 v 1.25616 c 0,0.99078 -0.79616,2.45925 -2.15847,2.45925 -1.25616,0 -2.31771,-1.25617 -2.31771,-2.83079 z"
         style="font-family:'CMU Typewriter Text';-inkscape-font-specification:'CMU Typewriter Text'"
         id="path14666" />
      <path
         d="m 187.15008,116.90247 c 0,0.19462 0.0885,0.60154 0.72539,0.61924 h 5.80311 c 0.61923,0 0.74308,-0.35385 0.76077,-0.60155 0,-0.17692 -0.0885,-0.63692 -0.72539,-0.63692 h -5.8208 c -0.60154,0 -0.74308,0.38923 -0.74308,0.61923 z"
         style="font-family:'CMU Typewriter Text';-inkscape-font-specification:'CMU Typewriter Text'"
         id="path14668" />
      <path
         d="m 19.178545,127.91299 c 0,0.53077 0.460002,0.53077 0.707696,0.53077 h 0.796158 v 9.00543 c 0,0.35385 0,0.72539 0.619234,0.72539 0.601542,0 0.601542,-0.35385 0.601542,-0.79616 0.725388,0.74308 1.486161,0.90231 2.052318,0.90231 1.928472,0 3.644634,-1.68077 3.644634,-3.92771 0,-2.17616 -1.574623,-3.91002 -3.450018,-3.91002 -0.849235,0 -1.645393,0.31846 -2.246934,0.86693 v -3.22002 c 0,-0.54846 -0.106155,-0.72539 -0.707696,-0.72539 h -1.291546 c -0.283078,0 -0.725388,0 -0.725388,0.54847 z m 2.72463,6.88234 v -1.29154 c 0,-1.04386 1.026159,-1.98155 2.14078,-1.98155 1.309238,0 2.335397,1.29154 2.335397,2.83078 0,1.69847 -1.238468,2.84848 -2.476936,2.84848 -1.380007,0 -1.999241,-1.55693 -1.999241,-2.40617 z"
         style="font-family:'CMU Typewriter Text';-inkscape-font-specification:'CMU Typewriter Text'"
         id="path14670" />
      <path
         d="m 29.174745,135.66226 c 0,1.46847 1.486161,2.70694 3.46771,2.70694 2.21155,0 3.963098,-1.59232 3.963098,-3.55618 0,-1.78693 -1.362315,-3.52078 -3.450018,-3.52078 -0.619234,0 -1.3977,0.12384 -2.123088,0.51308 v -3.36156 h 4.246176 c 0.265386,0 0.707696,0 0.707696,-0.53077 0,-0.54847 -0.424618,-0.54847 -0.707696,-0.54847 h -4.759256 c -0.583849,0 -0.707696,0.15924 -0.707696,0.72539 v 4.70618 c 0,0.31846 0,0.72539 0.566157,0.72539 0.318463,0 0.389233,-0.0885 0.530772,-0.26539 0.477695,-0.56615 1.203083,-0.88462 2.229242,-0.88462 1.450777,0 2.246935,1.29155 2.246935,2.44155 0,1.4154 -1.25616,2.47694 -2.742322,2.47694 -0.495387,0 -1.627701,-0.14154 -2.123088,-1.11462 0.08846,-0.0885 0.230001,-0.21231 0.230001,-0.56616 0,-0.51308 -0.406925,-0.79616 -0.778465,-0.79616 -0.265386,0 -0.796158,0.15924 -0.796158,0.84924 z"
         style="font-family:'CMU Typewriter Text';-inkscape-font-specification:'CMU Typewriter Text'"
         id="path14672" />
      <path
         d="m 38.056323,134.47687 c 0,0.58385 0.159232,0.70769 0.707696,0.70769 h 4.458485 v 1.91078 h -1.096929 c -0.283078,0 -0.707696,0 -0.707696,0.54847 0,0.53077 0.44231,0.53077 0.707696,0.53077 h 3.184632 c 0.265386,0 0.707696,0 0.707696,-0.53077 0,-0.54847 -0.424618,-0.54847 -0.707696,-0.54847 h -1.096929 v -1.91078 h 1.380007 c 0.265386,0 0.707696,0 0.707696,-0.53077 0,-0.54846 -0.424617,-0.54846 -0.707696,-0.54846 h -1.380007 v -6.22773 c 0,-0.58385 -0.123847,-0.72539 -0.725388,-0.72539 h -0.495387 c -0.424618,0 -0.51308,0.0177 -0.743081,0.37155 l -4.033867,6.33387 c -0.159232,0.23001 -0.159232,0.26539 -0.159232,0.61924 z m 1.238468,-0.37154 3.927713,-6.17465 v 6.17465 z"
         style="font-family:'CMU Typewriter Text';-inkscape-font-specification:'CMU Typewriter Text'"
         id="path14674" />
      <path
         d="m 47.804829,135.90995 c 0,1.22078 1.114621,2.37078 2.919246,2.37078 0.654619,0 1.751548,-0.12384 2.58309,-0.67231 0.389233,0.54847 1.238468,0.56616 1.91078,0.56616 0.495387,0 0.88462,0 0.88462,-0.54846 0,-0.53078 -0.44231,-0.53078 -0.707696,-0.53078 -0.743081,0 -0.920005,-0.0885 -1.061544,-0.14154 v -3.82155 c 0,-1.25616 -0.95539,-2.74233 -3.503096,-2.74233 -0.760773,0 -2.565398,0 -2.565398,1.29155 0,0.53077 0.371541,0.81385 0.796158,0.81385 0.265386,0 0.760774,-0.15923 0.778466,-0.81385 0,-0.14154 0.01769,-0.15923 0.37154,-0.19462 0.247694,-0.0177 0.477695,-0.0177 0.636927,-0.0177 1.344622,0 2.264627,0.54846 2.264627,1.80463 -3.131555,0.0531 -5.30772,0.93769 -5.30772,2.63616 z m 1.220776,0 c 0,-0.86692 1.521546,-1.52154 4.086944,-1.59231 v 1.48616 c 0,0.40692 0,0.77846 -0.690004,1.09693 -0.636926,0.30077 -1.433084,0.30077 -1.574623,0.30077 -1.096929,0 -1.822317,-0.60154 -1.822317,-1.29155 z"
         style="font-family:'CMU Typewriter Text';-inkscape-font-specification:'CMU Typewriter Text'"
         id="path14676" />
      <path
         d="m 57.977953,129.87684 c 0,0.44231 0.318463,0.53078 0.583849,0.53078 0.336155,0 1.061544,-0.10616 1.840009,-0.77847 v 7.46619 h -1.610008 c -0.283078,0 -0.707696,0 -0.707696,0.54847 0,0.53077 0.44231,0.53077 0.707696,0.53077 h 4.440792 c 0.265386,0 0.707696,0 0.707696,-0.53077 0,-0.54847 -0.424617,-0.54847 -0.707696,-0.54847 h -1.610008 v -9.20004 c 0,-0.28308 0,-0.72539 -0.530772,-0.72539 -0.336156,0 -0.44231,0.21231 -0.530772,0.42461 -0.672311,1.50386 -1.592316,1.69848 -1.928472,1.73386 -0.283078,0.0177 -0.654618,0.0531 -0.654618,0.54846 z"
         style="font-family:'CMU Typewriter Text';-inkscape-font-specification:'CMU Typewriter Text'"
         id="path14678" />
      <path
         d="m 67.266458,129.87684 c 0,0.44231 0.318463,0.53078 0.583849,0.53078 0.336156,0 1.061544,-0.10616 1.84001,-0.77847 v 7.46619 h -1.610008 c -0.283079,0 -0.707696,0 -0.707696,0.54847 0,0.53077 0.44231,0.53077 0.707696,0.53077 h 4.440792 c 0.265386,0 0.707696,0 0.707696,-0.53077 0,-0.54847 -0.424618,-0.54847 -0.707696,-0.54847 h -1.610008 v -9.20004 c 0,-0.28308 0,-0.72539 -0.530772,-0.72539 -0.336156,0 -0.44231,0.21231 -0.530772,0.42461 -0.672312,1.50386 -1.592316,1.69848 -1.928472,1.73386 -0.283078,0.0177 -0.654619,0.0531 -0.654619,0.54846 z"
         style="font-family:'CMU Typewriter Text';-inkscape-font-specification:'CMU Typewriter Text'"
         id="path14680" />
      <path
         d="m 75.67034,135.90995 c 0,1.22078 1.114621,2.37078 2.919246,2.37078 0.654619,0 1.751548,-0.12384 2.58309,-0.67231 0.389233,0.54847 1.238468,0.56616 1.91078,0.56616 0.495387,0 0.88462,0 0.88462,-0.54846 0,-0.53078 -0.44231,-0.53078 -0.707696,-0.53078 -0.743081,0 -0.920005,-0.0885 -1.061544,-0.14154 v -3.82155 c 0,-1.25616 -0.95539,-2.74233 -3.503096,-2.74233 -0.760773,0 -2.565398,0 -2.565398,1.29155 0,0.53077 0.371541,0.81385 0.796158,0.81385 0.265386,0 0.760774,-0.15923 0.778466,-0.81385 0,-0.14154 0.01769,-0.15923 0.37154,-0.19462 0.247694,-0.0177 0.477695,-0.0177 0.636927,-0.0177 1.344622,0 2.264627,0.54846 2.264627,1.80463 -3.131555,0.0531 -5.30772,0.93769 -5.30772,2.63616 z m 1.220776,0 c 0,-0.86692 1.521546,-1.52154 4.086944,-1.59231 v 1.48616 c 0,0.40692 0,0.77846 -0.690004,1.09693 -0.636926,0.30077 -1.433084,0.30077 -1.574623,0.30077 -1.096929,0 -1.822317,-0.60154 -1.822317,-1.29155 z"
         style="font-family:'CMU Typewriter Text';-inkscape-font-specification:'CMU Typewriter Text'"
         id="path14682" />
      <path
         d="m 85.277305,134.35302 c 0,2.12309 1.663086,3.92771 3.892328,3.92771 2.459244,0 3.060785,-1.73385 3.060785,-2.03462 0,-0.49539 -0.513079,-0.49539 -0.619234,-0.49539 -0.283078,0 -0.460002,0.0354 -0.583849,0.38923 -0.106154,0.23001 -0.44231,1.06155 -1.751548,1.06155 -1.503854,0 -2.777706,-1.23847 -2.777706,-2.84848 0,-0.84923 0.495387,-2.88386 2.883861,-2.88386 0.37154,0 1.061544,0 1.061544,0.15923 0.01769,0.61924 0.353848,0.86693 0.778465,0.86693 0.424618,0 0.796158,-0.30077 0.796158,-0.81385 0,-1.29155 -1.840009,-1.29155 -2.636167,-1.29155 -3.043093,0 -4.104637,2.40617 -4.104637,3.9631 z"
         style="font-family:'CMU Typewriter Text';-inkscape-font-specification:'CMU Typewriter Text'"
         id="path14684" />
      <path
         d="m 94.211962,130.77916 c 0,2.01693 1.556932,3.59155 3.503096,3.59155 0.920004,0 1.840009,-0.30077 2.636172,-1.02616 -0.17693,2.19386 -1.556936,3.94541 -3.255406,3.94541 -0.159232,0 -0.796158,-0.0177 -1.167699,-0.30077 0.07077,-0.0885 0.159232,-0.19462 0.159232,-0.49539 0,-0.42462 -0.318463,-0.77846 -0.778466,-0.77846 -0.44231,0 -0.796158,0.30077 -0.796158,0.83154 0,0.56616 0.318463,1.82232 2.583091,1.82232 2.335396,0 4.511566,-2.21155 4.511566,-5.71465 0,-4.26387 -1.963861,-5.48464 -3.644639,-5.48464 -1.963856,0 -3.750789,1.46847 -3.750789,3.60925 z m 1.220776,0 c 0,-1.53924 1.25616,-2.53002 2.530013,-2.53002 0.760773,0 1.256161,0.40693 1.539239,0.76078 0.460002,0.58385 0.67231,1.48616 0.67231,1.59231 0,0.0354 -0.0177,0.0708 -0.0177,0.15923 0,0.0885 0.0708,0.37154 0.0708,0.53078 0,0.97308 -0.955391,1.98155 -2.42386,1.98155 -1.433085,0 -2.370782,-1.1854 -2.370782,-2.49463 z"
         style="font-family:'CMU Typewriter Text';-inkscape-font-specification:'CMU Typewriter Text'"
         id="path14686" />
      <path
         d="m 103.85432,134.35302 c 0,2.12309 1.66308,3.92771 3.89232,3.92771 2.45925,0 3.06079,-1.73385 3.06079,-2.03462 0,-0.49539 -0.51308,-0.49539 -0.61923,-0.49539 -0.28308,0 -0.46001,0.0354 -0.58385,0.38923 -0.10616,0.23001 -0.44231,1.06155 -1.75155,1.06155 -1.50386,0 -2.77771,-1.23847 -2.77771,-2.84848 0,-0.84923 0.49539,-2.88386 2.88386,-2.88386 0.37154,0 1.06155,0 1.06155,0.15923 0.0177,0.61924 0.35384,0.86693 0.77846,0.86693 0.42462,0 0.79616,-0.30077 0.79616,-0.81385 0,-1.29155 -1.84001,-1.29155 -2.63617,-1.29155 -3.04309,0 -4.10463,2.40617 -4.10463,3.9631 z"
         style="font-family:'CMU Typewriter Text';-inkscape-font-specification:'CMU Typewriter Text'"
         id="path14688" />
      <path
         d="m 112.62974,135.0961 c 0,1.71617 1.6454,3.2731 3.85695,3.2731 2.22924,0 3.85694,-1.55693 3.85694,-3.2731 0,-1.32693 -1.15001,-2.37078 -2.45925,-2.74232 1.4154,-0.47769 2.21155,-1.34462 2.21155,-2.35309 0,-1.45078 -1.50385,-2.83078 -3.60924,-2.83078 -2.12309,0 -3.60925,1.3977 -3.60925,2.83078 0,1.00847 0.81385,1.89309 2.21155,2.35309 -1.32693,0.37154 -2.45925,1.41539 -2.45925,2.74232 z m 1.22078,-0.0177 c 0,-1.07924 1.02616,-2.19386 2.63617,-2.19386 1.6277,0 2.63616,1.11462 2.63616,2.19386 0,1.22078 -1.1677,2.21155 -2.63616,2.21155 -1.46847,0 -2.63617,-0.99077 -2.63617,-2.21155 z m 0.24769,-5.06003 c 0,-0.92 0.99078,-1.76924 2.38848,-1.76924 1.38,0 2.38847,0.84924 2.38847,1.76924 0,1.00847 -1.09693,1.78694 -2.38847,1.78694 -1.29155,0 -2.38848,-0.79616 -2.38848,-1.78694 z"
         style="font-family:'CMU Typewriter Text';-inkscape-font-specification:'CMU Typewriter Text'"
         id="path14690" />
      <path
         d="m 121.91824,128.54991 c 0,0.33616 0,0.72539 0.60154,0.72539 0.61924,0 0.61924,-0.33615 0.61924,-0.83154 h 4.67079 c -3.06079,3.2554 -3.66233,7.14773 -3.66233,9.09389 0,0.2477 0,0.83155 0.61924,0.83155 0.30077,0 0.60154,-0.19462 0.60154,-0.7077 0.0885,-5.02464 2.7954,-8.10312 3.87463,-9.14697 0.35385,-0.31846 0.38924,-0.35385 0.38924,-0.60154 0,-0.54847 -0.42462,-0.54847 -0.7077,-0.54847 h -5.83849 c -0.10616,-0.28307 -0.42462,-0.28307 -0.56616,-0.28307 -0.60154,0 -0.60154,0.38923 -0.60154,0.72538 z"
         style="font-family:'CMU Typewriter Text';-inkscape-font-specification:'CMU Typewriter Text'"
         id="path14692" />
      <path
         d="m 131.71983,134.35302 c 0,2.12309 1.66308,3.92771 3.89232,3.92771 2.45925,0 3.06079,-1.73385 3.06079,-2.03462 0,-0.49539 -0.51308,-0.49539 -0.61924,-0.49539 -0.28307,0 -0.46,0.0354 -0.58384,0.38923 -0.10616,0.23001 -0.44231,1.06155 -1.75155,1.06155 -1.50386,0 -2.77771,-1.23847 -2.77771,-2.84848 0,-0.84923 0.49539,-2.88386 2.88386,-2.88386 0.37154,0 1.06155,0 1.06155,0.15923 0.0177,0.61924 0.35384,0.86693 0.77846,0.86693 0.42462,0 0.79616,-0.30077 0.79616,-0.81385 0,-1.29155 -1.84001,-1.29155 -2.63617,-1.29155 -3.04309,0 -4.10463,2.40617 -4.10463,3.9631 z"
         style="font-family:'CMU Typewriter Text';-inkscape-font-specification:'CMU Typewriter Text'"
         id="path14694" />
      <path
         d="m 140.49525,135.0961 c 0,1.71617 1.64539,3.2731 3.85694,3.2731 2.22925,0 3.85695,-1.55693 3.85695,-3.2731 0,-1.32693 -1.15001,-2.37078 -2.45925,-2.74232 1.4154,-0.47769 2.21155,-1.34462 2.21155,-2.35309 0,-1.45078 -1.50385,-2.83078 -3.60925,-2.83078 -2.12308,0 -3.60925,1.3977 -3.60925,2.83078 0,1.00847 0.81386,1.89309 2.21155,2.35309 -1.32693,0.37154 -2.45924,1.41539 -2.45924,2.74232 z m 1.22078,-0.0177 c 0,-1.07924 1.02616,-2.19386 2.63616,-2.19386 1.62771,0 2.63617,1.11462 2.63617,2.19386 0,1.22078 -1.1677,2.21155 -2.63617,2.21155 -1.46846,0 -2.63616,-0.99077 -2.63616,-2.21155 z m 0.24769,-5.06003 c 0,-0.92 0.99077,-1.76924 2.38847,-1.76924 1.38001,0 2.38848,0.84924 2.38848,1.76924 0,1.00847 -1.09693,1.78694 -2.38848,1.78694 -1.29154,0 -2.38847,-0.79616 -2.38847,-1.78694 z"
         style="font-family:'CMU Typewriter Text';-inkscape-font-specification:'CMU Typewriter Text'"
         id="path14696" />
      <path
         d="m 149.99606,139.11228 c 0,0.26538 0.14154,0.53077 0.61923,0.53077 2.88386,0 3.64464,-0.99078 3.64464,-2.22924 v -2.81309 c 0,-0.12385 0,-0.2477 0.0177,-0.35385 0.17692,-0.83155 1.73385,-0.92001 2.35309,-0.9377 0.0885,0 0.63692,0.0354 0.63692,-0.54846 0,-0.72539 -0.79615,-0.44231 -1.78693,-0.65462 -1.25616,-0.26539 -1.22077,-0.77847 -1.22077,-1.1677 v -2.81309 c 0,-1.34463 -0.92001,-2.19386 -3.46771,-2.22925 h -0.21231 c -0.4777,0.0177 -0.58385,0.31847 -0.58385,0.54847 0,0.70769 0.81385,0.49539 1.68078,0.61923 1.29154,0.19462 1.34462,0.63693 1.34462,1.11462 v 2.86617 c 0,0.38924 0.0354,1.20309 1.00846,1.71617 v 0.0177 c -1.04385,0.58385 -1.00846,1.38001 -1.00846,1.82232 v 2.76001 c 0,0.14154 0,0.28308 -0.0354,0.40692 -0.30077,0.90232 -2.42386,0.72539 -2.68924,0.83155 -0.14154,0.0708 -0.30077,0.23 -0.30077,0.51308 z"
         style="font-family:'CMU Typewriter Text';-inkscape-font-specification:'CMU Typewriter Text'"
         id="path14698" />
    </g>
  </g>
</svg>
